<svg t="1625479529526" class="icon" viewBox="0 0 1024 1024" version="1.1" xmlns="http://www.w3.org/2000/svg" p-id="1720" width="40" height="40"><path d="M972.8 983.04H56.32v-250.88l916.48-220.16z" fill="#ffffff" p-id="1721"></path><path d="M885.76 1024H138.24c-76.288 0-138.24-61.952-138.24-138.24V138.24C0 61.952 61.952 0 138.24 0h747.52c76.288 0 138.24 61.952 138.24 138.24v747.52c0 76.288-61.952 138.24-138.24 138.24zM138.24 71.68c-36.864 0-66.56 29.696-66.56 66.56v747.52c0 36.864 29.696 66.56 66.56 66.56h747.52c36.864 0 66.56-29.696 66.56-66.56V138.24c0-36.864-29.696-66.56-66.56-66.56H138.24z" fill="#ffffff" p-id="1722"></path><path d="M275.456 543.232c4.096-4.096 9.728-6.656 15.872-6.656h441.344c23.552 0 45.568-9.216 62.464-26.112 16.384-16.384 25.6-39.424 25.6-62.464V337.92c0-48.64-39.424-88.576-88.064-88.576H429.568C413.696 194.56 360.448 159.232 304.64 166.4 246.784 174.08 203.264 223.744 203.264 282.112c0 58.368 43.52 108.032 100.864 115.2 56.32 7.168 109.056-28.16 124.928-82.432H732.16c12.288 0 22.528 10.24 22.528 22.528v110.08c0 6.144-2.56 11.776-6.656 15.872-4.096 4.096-9.728 6.656-15.872 6.656H291.328c-23.552 0-45.568 9.216-61.952 26.112-16.384 16.896-25.6 38.912-25.6 62.464v113.664c0 48.64 39.424 88.576 88.064 88.576h300.032c9.728 55.808 57.856 96.768 113.664 96.768h7.68c60.416-4.096 107.52-55.296 107.52-116.224 0-55.808-39.424-103.936-93.696-114.176-53.248-10.24-106.496 18.432-127.488 68.608H291.328c-5.632 0-11.776-2.56-15.872-6.656-4.096-4.608-6.656-10.24-6.656-16.384v-113.664c0-5.632 2.56-11.264 6.656-15.872zM318.976 332.8c-27.648 0-50.176-22.528-50.176-50.688s22.528-50.688 50.176-50.688 50.176 22.528 50.176 50.688-22.528 50.688-50.176 50.688z m386.048 358.4c27.648 0 50.176 22.528 50.176 50.688s-22.528 50.688-50.176 50.688-50.176-22.528-50.176-50.688 22.528-50.688 50.176-50.688z" fill="#ffffff" p-id="1723"></path></svg>