<svg t="1625480599685" class="icon" viewBox="0 0 1024 1024" version="1.1" xmlns="http://www.w3.org/2000/svg" p-id="9934" width="40" height="40"><path d="M378.368 326.656h-194.56c-13.312 0-24.576 10.752-24.576 24.576 0 13.312 10.752 24.576 24.576 24.576h194.56c13.312 0 24.576-10.752 24.576-24.576-0.512-13.824-11.264-24.576-24.576-24.576z m0 141.824h-194.56c-13.312 0-24.576 10.752-24.576 24.576 0 13.312 10.752 24.576 24.576 24.576h194.56c13.312 0 24.576-10.752 24.576-24.576-0.512-13.824-11.264-24.576-24.576-24.576z m0 141.824h-194.56c-13.312 0-24.576 10.752-24.576 24.576 0 13.312 10.752 24.576 24.576 24.576h194.56c13.312 0 24.576-10.752 24.576-24.576-0.512-13.824-11.264-24.576-24.576-24.576z m461.824-283.648h-194.56c-13.312 0-24.576 10.752-24.576 24.576 0 13.312 10.752 24.576 24.576 24.576h194.56c13.312 0 24.064-10.752 24.064-24.576 0.512-13.824-10.752-24.576-24.064-24.576z m0 141.824h-194.56c-13.312 0-24.576 10.752-24.576 24.576 0 13.312 10.752 24.576 24.576 24.576h194.56c13.312 0 24.064-10.752 24.064-24.576 0.512-13.824-10.752-24.576-24.064-24.576z m0 141.824h-194.56c-13.312 0-24.576 10.752-24.576 24.576 0 13.312 10.752 24.576 24.576 24.576h194.56c13.312 0 24.064-10.752 24.064-24.576 0.512-13.824-10.752-24.576-24.064-24.576z" p-id="9935" fill="#ffffff"></path><path d="M925.696 87.04h-243.2c-73.216 0-137.216 40.96-170.496 98.816C478.72 128 414.72 87.04 341.504 87.04H98.816C58.368 87.04 25.6 119.808 25.6 160.256v641.024c0 40.448 32.768 73.216 73.216 73.216h255.488c73.216 0 112.64 62.464 158.208 62.464s84.992-62.464 158.208-62.464h255.488c39.936 0 73.216-32.768 73.216-73.216V160.256c-1.024-40.448-33.792-73.216-73.728-73.216zM487.936 768.512v104.96s-53.76-47.616-133.632-47.616H110.592c-19.968 0-36.352-16.384-36.352-36.864V172.544c0-19.968 16.384-36.864 36.352-36.864h230.912c80.384 0 145.92 66.048 145.92 146.432v486.4h0.512z m461.824 20.48c0 19.968-16.384 36.864-36.352 36.864h-243.2c-80.384 0-133.632 47.616-133.632 47.616V282.624c0-80.384 65.536-146.432 145.92-146.432h230.912c19.968 0 36.352 16.384 36.352 36.864v615.936z" p-id="9936" fill="#ffffff"></path></svg>