<svg t="1624330887000" class="icon" viewBox="0 0 1024 1024" version="1.1" xmlns="http://www.w3.org/2000/svg" p-id="3354" width="20" height="20"><path d="M507.28 487a8.63 8.63 0 0 0 8.52 0l348.92-197.12-349.49-200.5a8.56 8.56 0 0 0-8.56 0L159.94 288.3z m-17.82 44.24a8.58 8.58 0 0 0-4.32-7.44L137 324.65v400.92a8.59 8.59 0 0 0 4.31 7.44l348.15 199.73z m-77.14 46.35a8.6 8.6 0 0 1-12.9 7.44l-146.59-84.45a8.6 8.6 0 0 1-4.3-7.44v-25.91a8.6 8.6 0 0 1 12.9-7.44L408 544.28a8.6 8.6 0 0 1 4.3 7.44z m124.48-53.08a8.55 8.55 0 0 0-4.36 7.46v400.77L880.58 733a8.58 8.58 0 0 0 4.32-7.44V327.73z" p-id="3355" fill="#ffffff"></path></svg>