<svg t="1625480816585" class="icon" viewBox="0 0 1024 1024" version="1.1" xmlns="http://www.w3.org/2000/svg" p-id="12867" width="40" height="40"><path d="M876.10358784 36.48909312c-16.70064811 3.69780053-33.37218958 7.5353179-50.07167261 11.24126834-30.87128349 6.85071246-61.74838784 13.6734811-92.63597112 20.44851427-17.48771157 3.83868131-35.02199467 7.47943139-52.49922845 11.36119126-15.20569344 3.37761963-30.35666546 6.97063424-46.30052181 10.64747804 25.50621184 24.64929109 50.47219086 48.77930496 75.59534933 73.0595146-16.35368846 17.28978147-32.15899421 34.02419427-47.99457052 50.73182834-8.34683107 8.80789163-16.71694791 17.59599161-25.11966549 26.3514897-20.18421874 21.02251179-40.3463168 42.06714425-60.60970781 63.0151407-16.48641821 17.04295083-33.10789405 33.95550094-49.66649856 50.9274294-0.70905515 0.72535609-1.38434674 1.48098275-2.08059506 2.21681778-9.29107399 9.80336413-18.58447815 19.60789333-28.13169664 29.68137386-35.29676914-32.20323669-69.96132523-63.83014798-105.08461397-95.87853312-13.11461945 13.70724579-26.22108899 27.49599175-39.42535851 41.18693774-13.92380473 14.43492978-27.94191645 28.77904555-41.9181147 43.16507478-13.55123029 13.95058347-27.09431069 27.90233088-40.64553984 41.85291434-14.1170779 14.5292379-28.24346965 29.05265493-42.35472555 43.58887766-13.12509838 13.51280867-26.18033835 27.09081771-39.36598016 40.54541084-23.98913536 24.48046763-48.08189269 48.85847723-72.0617142 73.35058774-10.48214869 10.69870763-20.80245987 21.55575865-31.14722076 32.38603093-0.7661056 0.80103538-1.16080185 1.95834425-1.69055688 2.88628736 13.52445155 12.95976789 26.81837227 25.62380573 40.02380686 38.37865757 5.81332537 5.61423019 5.81099634 5.77373867 11.62781469-0.23635172 7.44915968-7.69948331 14.71668907-15.5747749 22.13674211-23.299873 11.5020709-11.97710336 23.06468523-23.89133426 34.60750564-35.82885205 12.24721977-12.66403783 24.50841031-25.31410261 36.75330219-37.98279737 11.25640419-11.64760747 22.48952377-23.31500885 33.74825585-34.96028729 12.24489074-12.66636573 24.45368889-25.37115307 36.769602-37.97115449 21.40440007-21.89107541 42.87865856-43.71578653 64.32497322-65.56960426 0.71138418-0.72652003 1.43091826-1.44372622 2.12949561-2.17956011 9.66597746-10.22483911 19.33079097-20.44967822 28.83260303-30.50336597 36.08150357 32.22535851 71.47025181 63.83596885 107.44464042 95.96352626 9.57283442-10.17826759 18.63919957-19.92807424 27.82781554-29.56727296 18.14786731-19.03855275 36.35976989-38.01423303 54.54722276-57.00970724 18.47154119-19.29120427 36.94657536-38.57658766 55.41811541-57.86662798 18.19094585-18.99430912 36.31669134-38.05265465 54.58448043-56.9747786 16.18486499-16.76701355 32.57464718-33.34075278 48.77348408-50.0972874 4.85627449-5.02043989 9.37373923-10.36455481 14.30103609-15.84139832 27.76145123 26.18965333 54.87438962 51.7668864 82.65097671 77.97167559 1.52056946-8.09068658 2.86765853-14.87270457 4.05523912-21.68383147 3.08072448-17.66817792 6.06015602-35.35381959 9.14088049-53.02199637 2.59987115-14.91345522 5.33829291-29.80129565 7.92884907-44.714752 3.03531691-17.47606869 5.95071203-34.97193017 8.96623616-52.45032789 3.08305351-17.86261504 6.13932829-35.72988701 9.38188914-53.56572218 1.43324729-7.8892635 3.28680448-15.70401166 4.95174656-23.55252451 0-0.40633913 0-0.81267826 0-1.21901739C881.24627968 35.79983075 878.6277797 35.93023147 876.10358784 36.48909312z" p-id="12868" fill="#ffffff"></path><path d="M740.49581511 949.37558699c36.70556558 0 73.02109298 0 109.79069497 0 0-187.81476295 0-375.1510016 0-562.25554546-36.96171122 0-73.4216101 0-109.79069497 0C740.49581511 574.77296811 740.49581511 761.96366905 740.49581511 949.37558699z" p-id="12869" fill="#ffffff"></path><path d="M541.84262883 949.20327054c36.89534578 0 73.35408071 0 110.02821064 0 0-145.58927531 0-290.78967523 0-436.48140743-37.04204743 0-73.64399104 0-110.02821064 0C541.84262883 658.56378994 541.84262883 803.90506951 541.84262883 949.20327054z" p-id="12870" fill="#ffffff"></path><path d="M337.10250781 949.15320605c36.94773931 0 73.40298126 0 109.81514467 0 0-116.12446037 0-231.80415886 0-347.71206031-36.69275875 0-73.00362809 0-109.81514467 0C337.10250781 717.70415673 337.10250781 833.52357205 337.10250781 949.15320605z" p-id="12871" fill="#ffffff"></path><path d="M154.26044814 949.14854912c36.95239623 0 73.40996722 0 109.80117391 0 0-79.55860935 0-158.67129401 0-238.00752355-36.69974471 0-73.0094501 0-109.80117391 0C154.26044814 790.85448647 154.26044814 870.11037981 154.26044814 949.14854912z" p-id="12872" fill="#ffffff"></path></svg>