<svg t="1625480680233" class="icon" viewBox="0 0 1024 1024" version="1.1" xmlns="http://www.w3.org/2000/svg" p-id="10871" width="40" height="40"><path d="M400.384 338.816c221.12 0 400.448-55.424 400.448-123.2V123.2C800.832 54.912 621.44 0 400.384 0 179.328 0 0 54.784 0 123.2v92.416c0 67.776 179.2 123.2 400.384 123.2z m0 307.968c26.496 0 52.352-0.512 77.696-2.432L512 610.56a268.032 268.032 0 0 1 19.072-155.2c-40.704 4.288-84.992 6.784-130.56 6.784-100.992 0-193.408-11.072-263.68-30.72C52.992 408.96 0 375.68 0 338.752V523.52c0 67.776 179.2 123.2 400.384 123.2z m-81.28 155.904l33.92-33.92c-82.56-2.368-157.12-12.928-216.192-29.568C52.992 716.992 0 683.776 0 646.784v184.832c0 63.424 155.84 115.84 356.608 122.496l-37.632-37.568c-31.36-31.36-31.36-82.56 0.128-113.92z m665.088-262.272c-0.896-7.68-10.688-10.624-16.192-5.12l-96.768 96.768a75.648 75.648 0 0 1-107.072 0l-53.44-53.568a75.648 75.648 0 0 1 0-107.008l96.64-96.704c5.568-5.504 2.432-15.168-5.12-16.192a208.192 208.192 0 0 0-200.512 94.912 207.104 207.104 0 0 0-22.144 175.936L362.88 846.08a18.944 18.944 0 0 0 0 26.688l107.072 107.072a18.944 18.944 0 0 0 26.688 0l216.704-216.704a208 208 0 0 0 270.848-222.72z" p-id="10872" fill="#ffffff"></path></svg>