<?xml version="1.0" encoding="utf-8"?>
<svg version="1.1" xmlns:xlink="http://www.w3.org/1999/xlink" width="40px" height="40px" xmlns="http://www.w3.org/2000/svg">
  <g transform="matrix(1 0 0 1 -30 -707 )">
    <path d="M 10.6666666666667 14.2857142857143  C 10.6666666666667 16.3541666666667  11.2291666666667 18.2589285714286  12.3541666666667 20  C 10.1041666666667 20.0744047619048  8.26388888888889 21.0267857142857  6.83333333333333 22.8571428571429  L 4.04166666666667 22.8571428571429  C 2.90277777777778 22.8571428571429  1.94444444444444 22.5558035714286  1.16666666666667 21.953125  C 0.388888888888889 21.3504464285714  0 20.46875  0 19.3080357142857  C 0 14.0550595238095  0.861111111111111 11.4285714285714  2.58333333333333 11.4285714285714  C 2.66666666666667 11.4285714285714  2.96875 11.5848214285714  3.48958333333333 11.8973214285714  C 4.01041666666667 12.2098214285714  4.6875 12.5260416666667  5.52083333333333 12.8459821428571  C 6.35416666666667 13.1659226190476  7.18055555555556 13.3258928571429  8 13.3258928571429  C 8.93055555555556 13.3258928571429  9.85416666666667 13.1547619047619  10.7708333333333 12.8125  C 10.7013888888889 13.3630952380952  10.6666666666667 13.8541666666667  10.6666666666667 14.2857142857143  Z M 34.59375 31.9084821428571  C 34.6423611111111 32.6599702380952  34.6666666666667 33.4300595238095  34.6666666666667 34.21875  C 34.6666666666667 36.0044642857143  34.1597222222222 37.4144345238095  33.1458333333333 38.4486607142857  C 32.1319444444445 39.4828869047619  30.7847222222222 40  29.1041666666667 40  L 10.8958333333333 40  C 9.21527777777778 40  7.86805555555556 39.4828869047619  6.85416666666667 38.4486607142857  C 5.84027777777778 37.4144345238095  5.33333333333333 36.0044642857143  5.33333333333333 34.21875  C 5.33333333333333 33.4300595238095  5.35763888888889 32.6599702380952  5.40625 31.9084821428571  C 5.45486111111111 31.156994047619  5.55208333333333 30.3459821428571  5.69791666666667 29.4754464285714  C 5.84375 28.6049107142857  6.02777777777778 27.797619047619  6.25 27.0535714285714  C 6.47222222222222 26.3095238095238  6.77083333333333 25.5840773809524  7.14583333333333 24.8772321428571  C 7.52083333333333 24.1703869047619  7.95138888888889 23.5677083333333  8.4375 23.0691964285714  C 8.92361111111111 22.5706845238095  9.51736111111111 22.172619047619  10.21875 21.875  C 10.9201388888889 21.5773809523809  11.6944444444444 21.4285714285714  12.5416666666667 21.4285714285714  C 12.6805555555556 21.4285714285714  12.9791666666667 21.5885416666667  13.4375 21.9084821428571  C 13.8958333333333 22.2284226190476  14.4027777777778 22.5855654761905  14.9583333333333 22.9799107142857  C 15.5138888888889 23.3742559523809  16.2569444444444 23.7313988095238  17.1875 24.0513392857143  C 18.1180555555556 24.3712797619048  19.0555555555556 24.53125  20 24.53125  C 20.9444444444444 24.53125  21.8819444444444 24.3712797619048  22.8125 24.0513392857143  C 23.7430555555556 23.7313988095238  24.4861111111111 23.3742559523809  25.0416666666667 22.9799107142857  C 25.5972222222222 22.5855654761905  26.1041666666667 22.2284226190476  26.5625 21.9084821428571  C 27.0208333333333 21.5885416666667  27.3194444444444 21.4285714285714  27.4583333333333 21.4285714285714  C 28.3055555555556 21.4285714285714  29.0798611111111 21.5773809523809  29.78125 21.875  C 30.4826388888889 22.172619047619  31.0763888888889 22.5706845238095  31.5625 23.0691964285714  C 32.0486111111111 23.5677083333333  32.4791666666667 24.1703869047619  32.8541666666667 24.8772321428571  C 33.2291666666667 25.5840773809524  33.5277777777778 26.3095238095238  33.75 27.0535714285714  C 33.9722222222222 27.797619047619  34.15625 28.6049107142857  34.3020833333333 29.4754464285714  C 34.4479166666667 30.3459821428571  34.5451388888889 31.156994047619  34.59375 31.9084821428571  Z M 11.7708333333333 1.67410714285714  C 12.8125 2.79017857142857  13.3333333333333 4.13690476190476  13.3333333333333 5.71428571428572  C 13.3333333333333 7.29166666666667  12.8125 8.63839285714286  11.7708333333333 9.75446428571428  C 10.7291666666667 10.8705357142857  9.47222222222222 11.4285714285714  8 11.4285714285714  C 6.52777777777778 11.4285714285714  5.27083333333333 10.8705357142857  4.22916666666667 9.75446428571428  C 3.1875 8.63839285714286  2.66666666666667 7.29166666666667  2.66666666666667 5.71428571428572  C 2.66666666666667 4.13690476190476  3.1875 2.79017857142857  4.22916666666667 1.67410714285714  C 5.27083333333333 0.558035714285716  6.52777777777778 0  8 0  C 9.47222222222222 0  10.7291666666667 0.558035714285716  11.7708333333333 1.67410714285714  Z M 25.65625 8.22544642857143  C 27.21875 9.89955357142857  28 11.9196428571429  28 14.2857142857143  C 28 16.6517857142857  27.21875 18.671875  25.65625 20.3459821428571  C 24.09375 22.0200892857143  22.2083333333333 22.8571428571429  20 22.8571428571429  C 17.7916666666667 22.8571428571429  15.90625 22.0200892857143  14.34375 20.3459821428571  C 12.78125 18.671875  12 16.6517857142857  12 14.2857142857143  C 12 11.9196428571429  12.78125 9.89955357142857  14.34375 8.22544642857143  C 15.90625 6.55133928571428  17.7916666666667 5.71428571428572  20 5.71428571428572  C 22.2083333333333 5.71428571428572  24.09375 6.55133928571428  25.65625 8.22544642857143  Z M 37.4166666666667 11.4285714285714  C 39.1388888888889 11.4285714285714  40 14.0550595238095  40 19.3080357142857  C 40 20.46875  39.6111111111111 21.3504464285714  38.8333333333333 21.953125  C 38.0555555555556 22.5558035714286  37.0972222222222 22.8571428571429  35.9583333333333 22.8571428571429  L 33.1666666666667 22.8571428571429  C 31.7361111111111 21.0267857142857  29.8958333333333 20.0744047619048  27.6458333333333 20  C 28.7708333333333 18.2589285714286  29.3333333333333 16.3541666666667  29.3333333333333 14.2857142857143  C 29.3333333333333 13.8541666666667  29.2986111111111 13.3630952380952  29.2291666666667 12.8125  C 30.1458333333333 13.1547619047619  31.0694444444444 13.3258928571429  32 13.3258928571429  C 32.8194444444444 13.3258928571429  33.6458333333333 13.1659226190476  34.4791666666667 12.8459821428571  C 35.3125 12.5260416666667  35.9895833333333 12.2098214285714  36.5104166666667 11.8973214285714  C 37.03125 11.5848214285714  37.3333333333333 11.4285714285714  37.4166666666667 11.4285714285714  Z M 35.7708333333333 1.67410714285714  C 36.8125 2.79017857142857  37.3333333333333 4.13690476190476  37.3333333333333 5.71428571428572  C 37.3333333333333 7.29166666666667  36.8125 8.63839285714286  35.7708333333333 9.75446428571428  C 34.7291666666667 10.8705357142857  33.4722222222222 11.4285714285714  32 11.4285714285714  C 30.5277777777778 11.4285714285714  29.2708333333333 10.8705357142857  28.2291666666667 9.75446428571428  C 27.1875 8.63839285714286  26.6666666666667 7.29166666666667  26.6666666666667 5.71428571428572  C 26.6666666666667 4.13690476190476  27.1875 2.79017857142857  28.2291666666667 1.67410714285714  C 29.2708333333333 0.558035714285716  30.5277777777778 0  32 0  C 33.4722222222222 0  34.7291666666667 0.558035714285716  35.7708333333333 1.67410714285714  Z " fill-rule="nonzero" fill="#ffffff" stroke="none" transform="matrix(1 0 0 1 30 707 )" />
  </g>
</svg>