<svg t="1625480496843" class="icon" viewBox="0 0 1216 1024" version="1.1" xmlns="http://www.w3.org/2000/svg" p-id="9006" width="40" height="40"><path d="M1171.2 757.184a23.808 23.808 0 0 1-23.808 23.808H24.576a23.808 23.808 0 0 1-23.808-23.808v-92.416c0-13.12 10.688-23.744 23.808-23.744h1122.816c13.184 0 23.808 10.624 23.808 23.744v92.416z m0 209.984a23.808 23.808 0 0 1-23.808 23.808H24.576a23.808 23.808 0 0 1-23.808-23.808V874.88c0-13.184 10.688-23.808 23.808-23.808h1122.816c13.184 0 23.808 10.624 23.808 23.808v92.352zM1147.392 50.176H24.576a23.808 23.808 0 0 0-23.808 23.808V547.2c0 13.12 10.688 23.808 23.808 23.808h1122.816a23.808 23.808 0 0 0 23.808-23.808V73.984a23.808 23.808 0 0 0-23.808-23.808zM476.8 281.216a23.808 23.808 0 0 1-23.808 23.808H136.576a23.808 23.808 0 0 1-23.808-23.808V188.8c0-13.12 10.688-23.808 23.808-23.808h316.416c13.184 0 23.808 10.688 23.808 23.808v92.416z" p-id="9007" fill="#ffffff"></path></svg>