<svg t="1625479630737" class="icon" viewBox="0 0 1024 1024" version="1.1" xmlns="http://www.w3.org/2000/svg" p-id="6353" width="40" height="40"><path d="M463.698113 714.867925h57.962264l-28.981132-106.264151-28.981132 106.264151z m351.869585-34.748378c-3.690264-11.466868-8.877887-20.412377-15.524226-26.846189-6.66566-6.424151-15.09917-10.771321-25.32951-13.041509-7.641358-1.758189-22.624604-2.646943-44.920754-2.646943H705.207547v183.547169h40.863396c15.273057 0 26.314868-0.888755 33.096453-2.646943 8.868226-2.270189 16.229434-6.105358 22.083623-11.52483 5.854189-5.429132 10.626415-14.336 14.336-26.759245 3.690264-12.403925 5.545057-29.319245 5.545056-50.745963-0.028981-21.417057-1.864453-37.868679-5.564377-49.335547zM644.115321 0H77.283019v1024h869.433962V301.568L644.115321 0zM338.113208 636.483623h-51.798944c-15.282717 0-26.334189 0.898415-33.115773 2.675924-8.887547 2.29917-16.258415 6.182642-22.112604 11.660076-5.844528 5.477434-10.626415 14.490566-14.336 27.039396-3.699925 12.558491-5.554717 29.647698-5.554717 51.296604 0 21.658566 1.854792 38.284075 5.554717 49.886188 3.690264 11.592453 8.887547 20.634566 15.533887 27.136 6.66566 6.501434 15.118491 10.896906 25.34883 13.186415 7.651019 1.777509 22.643925 2.675925 44.949736 2.675925h35.501886V869.433962h-56.223396c-22.576302 0-39.781434-1.78717-51.625056-5.342188a90.37283 90.37283 0 0 1-40.882717-25.793208c-11.350943-12.365283-19.996981-27.493434-25.909132-45.394113C157.522113 775.013434 154.566038 752.929811 154.566038 726.692226c0-23.068981 2.772528-42.930717 8.327245-59.623849 6.781585-20.383396 16.470943-36.87366 29.039094-49.490113 9.496151-9.563774 22.325132-17.021585 38.486944-22.363773 12.085132-3.951094 28.246943-5.931472 48.466113-5.931472h59.189132v47.200604H338.113208zM561.992453 869.433962l-30.497811-106.950037h-87.28151L413.724981 869.433962H367.09434l82.615547-289.81132h76.278339L608.603774 869.433962h-46.611321zM647.245283 196.395472L647.41917 77.283019 869.433962 299.297811V299.471698H647.245283V196.395472z m223.715019 595.253132c-6.636679 20.383396-16.094189 36.87366-28.382189 49.499773-9.273962 9.544453-21.813132 17.002264-37.598188 22.354114-11.814642 3.951094-27.599698 5.931472-47.364831 5.931471H656.90566V589.283019h97.811321c22.054642 0 38.863698 1.78717 50.42717 5.342189 15.553208 4.849509 28.874868 13.447245 39.955321 25.793207 11.090113 12.365283 19.533283 27.493434 25.319849 45.384453 5.796226 17.900679 8.675019 39.974642 8.675019 66.212226 0.00966 23.068981-2.704906 42.950038-8.134038 59.63351z" p-id="6354" fill="#ffffff"></path></svg>