<svg t="1625480890935" class="icon" viewBox="0 0 1024 1024" version="1.1" xmlns="http://www.w3.org/2000/svg" p-id="13843" width="40" height="40"><path d="M1004.032 418.816l-89.6-40.448c-57.856-26.112-92.16-87.04-84.48-150.016l11.264-97.792C794.112 89.088 739.84 57.344 680.96 35.84l-80.896 57.344c-51.712 37.376-121.344 36.352-172.544-1.536L349.696 33.28c-59.392 19.968-114.176 51.2-161.792 91.648l9.728 97.792c6.656 62.976-28.672 123.392-87.04 148.48L19.456 410.112c-12.288 61.44-12.8 124.416-1.536 185.856l89.6 40.448c57.856 26.112 92.16 87.04 84.992 150.016l-11.776 97.28c47.104 41.472 101.376 73.216 160.256 94.72L420.864 921.6c51.712-37.376 121.344-36.352 172.544 1.536l78.848 58.88c59.392-19.968 114.176-51.2 161.792-91.648l-9.728-97.792c-6.144-62.976 28.672-122.88 87.04-148.48l90.624-38.912c12.288-61.44 12.8-124.416 1.536-186.368h0.512z m-493.056 339.456c-138.24 0-250.368-112.128-250.368-250.368s112.128-250.368 250.368-250.368 250.368 112.128 250.368 250.368-112.128 250.368-250.368 250.368z" p-id="13844" fill="#ffffff"></path><path d="M510.976 330.24c-98.304 0-177.664 79.36-177.664 177.664s79.36 177.664 177.664 177.664 177.664-79.36 177.664-177.664S609.28 330.24 510.976 330.24z m0 276.48c-54.784-2.56-96.768-49.152-94.208-103.424 2.56-51.2 43.52-92.16 94.208-94.208 53.76 2.56 96.256 45.568 98.816 98.816 0 54.272-44.544 98.304-98.816 98.816z" p-id="13845" fill="#ffffff"></path></svg>