<svg t="1625479867015" class="icon" viewBox="0 0 1024 1024" version="1.1" xmlns="http://www.w3.org/2000/svg" p-id="8048" width="40" height="40"><path d="M129.536 158.72c57.344-11.264 114.176-24.576 169.984-39.936 52.224-13.824 103.936-29.696 155.136-47.616 32.768-11.264 68.608-11.264 101.376-0.512 51.712 17.408 104.448 33.792 157.184 47.616 55.808 14.848 111.616 28.16 168.448 39.936 28.672 5.632 49.664 30.72 49.664 59.904L931.84 471.04v3.072c0 188.416-141.824 354.304-425.472 497.152-283.648-130.56-425.472-296.448-425.472-497.152l-0.512-255.488c-0.512-29.184 20.48-54.272 49.152-59.904z m303.104 240.64l102.4 323.584c4.096 12.288 15.36 20.992 28.672 21.504 13.312 0.512 25.088-7.68 29.696-19.968l67.584-179.712h133.632c13.824 0 26.112-7.168 33.28-19.456 6.656-11.776 6.656-26.624 0-38.4s-19.456-19.456-33.28-19.456h-165.376c-12.8 0-24.064 8.192-28.672 19.968l-32.256 85.504-105.984-332.8c-4.096-12.8-15.872-20.992-29.184-21.504-13.312 0-25.088 8.192-29.184 20.992l-71.68 219.136H217.6c-13.824 0-26.112 7.168-33.28 19.456-6.656 11.776-6.656 26.624 0 38.4s19.456 19.456 33.28 19.456h169.984L432.64 399.36z m0 0" p-id="8049" fill="#ffffff"></path></svg>